<?xml version="1.0" encoding="UTF-8" standalone="no"?>
<!-- Created with Inkscape (http://www.inkscape.org/) -->

<svg
   xmlns:dc="http://purl.org/dc/elements/1.1/"
   xmlns:cc="http://creativecommons.org/ns#"
   xmlns:rdf="http://www.w3.org/1999/02/22-rdf-syntax-ns#"
   xmlns:svg="http://www.w3.org/2000/svg"
   xmlns="http://www.w3.org/2000/svg"
   xmlns:sodipodi="http://sodipodi.sourceforge.net/DTD/sodipodi-0.dtd"
   xmlns:inkscape="http://www.inkscape.org/namespaces/inkscape"
   width="210mm"
   height="297mm"
   viewBox="0 0 744.09448819 1052.3622047"
   id="svg2"
   version="1.1"
   inkscape:version="0.91 r13725"
   sodipodi:docname="weather1.svg">
  <defs
     id="defs4" />
  <sodipodi:namedview
     id="base"
     pagecolor="#ffffff"
     bordercolor="#666666"
     borderopacity="1.0"
     inkscape:pageopacity="0.0"
     inkscape:pageshadow="2"
     inkscape:zoom="0.35"
     inkscape:cx="-46.428571"
     inkscape:cy="520"
     inkscape:document-units="px"
     inkscape:current-layer="layer1"
     showgrid="false"
     inkscape:window-width="1536"
     inkscape:window-height="801"
     inkscape:window-x="-8"
     inkscape:window-y="-8"
     inkscape:window-maximized="1" />
  <metadata
     id="metadata7">
    <rdf:RDF>
      <cc:Work
         rdf:about="">
        <dc:format>image/svg+xml</dc:format>
        <dc:type
           rdf:resource="http://purl.org/dc/dcmitype/StillImage" />
        <dc:title></dc:title>
      </cc:Work>
    </rdf:RDF>
  </metadata>
  <g
     inkscape:label="Layer 1"
     inkscape:groupmode="layer"
     id="layer1">
    <rect
       style="fill:#008080;fill-opacity:1;stroke:#ffffff;stroke-opacity:1"
       id="rect4155"
       width="591.42859"
       height="57.142857"
       x="71.428574"
       y="472.36221" />
    <rect
       style="fill:#008080;fill-opacity:1;stroke:#008080;stroke-opacity:0.01960784"
       id="rect4155-7"
       width="591.42859"
       height="57.142857"
       x="-906.60193"
       y="-118.97253"
       transform="matrix(-0.45267645,-0.89167485,-0.89167485,0.45267645,0,0)" />
    <rect
       style="fill:#008080;fill-opacity:1;stroke:#008080;stroke-opacity:0.01960784"
       id="rect4155-7-1"
       width="591.42859"
       height="57.142857"
       x="-580.67505"
       y="523.03339"
       transform="matrix(0.45267645,-0.89167485,0.89167485,0.45267645,0,0)" />
    <path
       sodipodi:type="star"
       style="fill:#008080;fill-opacity:1;stroke:#008080;stroke-opacity:0.01960784"
       id="path4187"
       sodipodi:sides="6"
       sodipodi:cx="360.00001"
       sodipodi:cy="492.36221"
       sodipodi:r1="212.29552"
       sodipodi:r2="106.14776"
       sodipodi:arg1="0.50579132"
       sodipodi:arg2="1.0293901"
       inkscape:flatsided="false"
       inkscape:rounded="0"
       inkscape:randomized="0"
       d="M 545.71428,595.21936 414.70236,583.32923 363.78024,704.62407 308.57143,585.21935 178.06596,601.76693 253.86907,494.25233 174.28572,389.50507 305.29764,401.39519 356.21976,280.10036 411.42857,399.50507 541.93404,382.9575 466.13093,490.47209 Z" />
    <rect
       style="fill:#ffffff;fill-opacity:1;stroke:#008080;stroke-width:0.76269037;stroke-opacity:0.01960784"
       id="rect4195"
       width="71.808731"
       height="65.598648"
       x="225.80406"
       y="650.88263"
       transform="matrix(0.34231862,-0.93958393,0.39343403,0.91935285,0,0)" />
    <rect
       style="fill:#ffffff;fill-opacity:1;stroke:#008080;stroke-width:0.76269037;stroke-opacity:0.01960784"
       id="rect4195-7"
       width="71.808731"
       height="65.598648"
       x="103.77533"
       y="770.12909"
       transform="matrix(0.34231862,-0.93958393,0.39343403,0.91935285,0,0)" />
    <rect
       style="fill:#ffffff;fill-opacity:1;stroke:#008080;stroke-width:0.76269037;stroke-opacity:0.01960784"
       id="rect4195-5"
       width="71.808731"
       height="65.598648"
       x="-952.52869"
       y="-763.28644"
       transform="matrix(-0.98781593,0.15562676,0.6137384,-0.78950945,0,0)" />
    <rect
       style="fill:#ffffff;fill-opacity:1;stroke:#008080;stroke-width:0.76269037;stroke-opacity:0.01960784"
       id="rect4195-7-9"
       width="71.808731"
       height="65.598648"
       x="-832.97272"
       y="-887.37335"
       transform="matrix(-0.98781593,0.15562676,0.6137384,-0.78950945,0,0)" />
    <rect
       style="fill:#ffffff;fill-opacity:1;stroke:#008080;stroke-width:0.76269037;stroke-opacity:0.01960784"
       id="rect4195-5-0-9"
       width="71.808731"
       height="65.598648"
       x="-128.03714"
       y="-604.74493"
       transform="matrix(0.98781593,0.15562676,-0.6137384,-0.78950945,0,0)" />
    <rect
       style="fill:#ffffff;fill-opacity:1;stroke:#008080;stroke-width:0.76269037;stroke-opacity:0.01960784"
       id="rect4195-7-9-9-5"
       width="71.808731"
       height="65.598648"
       x="2.5413551"
       y="-724.12598"
       transform="matrix(0.98781593,0.15562676,-0.6137384,-0.78950945,0,0)" />
    <rect
       style="fill:#008080;fill-opacity:1;stroke:#008080;stroke-opacity:1"
       id="rect4272"
       width="200"
       height="37.142857"
       x="-25.034306"
       y="369.32581"
       transform="matrix(0.87355565,-0.48672428,0.48672428,0.87355565,0,0)" />
    <rect
       style="fill:#008080;fill-opacity:1;stroke:#008080;stroke-opacity:1"
       id="rect4272-1"
       width="200"
       height="37.142857"
       x="-644.42078"
       y="19.312452"
       transform="matrix(-0.87355565,-0.48672428,-0.48672428,0.87355565,0,0)" />
    <rect
       style="fill:#008080;fill-opacity:1;stroke:#008080;stroke-opacity:1"
       id="rect4272-7"
       width="200"
       height="37.142857"
       x="471.55753"
       y="-513.13458"
       transform="matrix(0.87355565,0.48672428,0.48672428,-0.87355565,0,0)" />
    <rect
       style="fill:#008080;fill-opacity:1;stroke:#008080;stroke-opacity:1"
       id="rect4272-1-0"
       width="200"
       height="37.142857"
       x="-155.3166"
       y="-867.31982"
       transform="matrix(-0.87355565,0.48672428,-0.48672428,-0.87355565,0,0)" />
    <rect
       style="fill:#008080;fill-opacity:1;stroke:#008080;stroke-opacity:1"
       id="rect4272-1-3"
       width="200"
       height="37.142857"
       x="-591.05005"
       y="-637.9657"
       transform="matrix(0.01605915,-0.99987104,-0.99987104,-0.01605915,0,0)" />
    <rect
       style="fill:#008080;fill-opacity:1;stroke:#008080;stroke-opacity:1"
       id="rect4272-1-3-7"
       width="200"
       height="37.142857"
       x="-595.85577"
       y="-160.83853"
       transform="matrix(0.01605915,-0.99987104,-0.99987104,-0.01605915,0,0)" />
  </g>
</svg>
